<svg xmlns="http://www.w3.org/2000/svg" id="Layer_1" x="0" y="0" version="1.1" viewBox="0 0 200 200" xml:space="preserve"><style>.st0{fill:url(#SVGID_1_)}.st1{fill:#fff}</style><linearGradient id="SVGID_1_" x1="55.674" x2="144.489" y1="177.812" y2="21.882" gradientTransform="matrix(1 0 0 -1 0 200)" gradientUnits="userSpaceOnUse"><stop offset="0" stop-color="#ffd100"/><stop offset=".248" stop-color="#ffcd00"/><stop offset=".517" stop-color="#ffc000"/><stop offset=".794" stop-color="#fa0"/><stop offset="1" stop-color="#ff9500"/></linearGradient><path d="M100 200c-4 0-8.1-1.1-11.7-3.1l-66.4-38.3c-7.2-4.2-11.7-11.9-11.7-20.2V61.7c0-8.3 4.4-16 11.7-20.2L88.3 3.1C91.9 1 96 0 100 0s8.1 1 11.7 3.1L178 41.5c7.2 4.2 11.7 11.9 11.7 20.2v76.7c0 8.4-4.4 16.1-11.7 20.2l-66.4 38.3c-3.5 2-7.6 3.1-11.6 3.1z" class="st0"/><path d="M160.4 94.7L100 64.5 39.5 94.7V70.5L100 40.3l60.4 30.2v24.2z" class="st1"/><path d="M160.5 138.4L100 108.1l-60.4 30.2v-24.2L100 84l60.4 30.2v24.2z" class="st1"/></svg>